<svg xmlns="http://www.w3.org/2000/svg" xmlns:xlink="http://www.w3.org/1999/xlink" width="684" height="287.262" viewBox="0 0 684 287.262"><defs><style>.a{fill:#3f3d56;}.b{fill:#57b894;}.c,.l,.s{opacity:0.1;}.d{fill:#f2f2f2;}.e{fill:#31c28c;}.f{fill:#75dfb8;}.g,.l,.t{fill:none;stroke-miterlimit:10;}.g{stroke:#f2f2f2;stroke-width:2px;}.h,.k{fill:#6c63ff;}.h{opacity:0.3;}.i{fill:#192534;}.j{fill:#a0616a;}.l{stroke:#000;}.m{fill:#ffc1c7;}.n{opacity:0.05;}.o{fill:#fbbebe;}.p{fill:url(#a);}.q{fill:#575a89;}.r{fill:#cbceda;}.t{stroke:#3f3d56;stroke-width:4px;}.u{fill:#656380;}.v{opacity:0.2;}</style><linearGradient id="a" x1="-52.727" y1="1" x2="-52.727" gradientUnits="objectBoundingBox"><stop offset="0" stop-color="gray" stop-opacity="0.251"/><stop offset="0.54" stop-color="gray" stop-opacity="0.122"/><stop offset="1" stop-color="gray" stop-opacity="0.102"/></linearGradient></defs><g transform="translate(0 0.059)"><ellipse class="a" cx="342" cy="12.204" rx="342" ry="12.204" transform="translate(0 262.795)"/><path class="a" d="M1047.238,544.842a14.377,14.377,0,0,0,1.9-7.288c0-6.584-4.068-11.925-9.112-11.925s-9.107,5.341-9.107,11.925a14.379,14.379,0,0,0,1.9,7.288,14.924,14.924,0,0,0,0,14.575,14.913,14.913,0,0,0,0,14.569,14.924,14.924,0,0,0,0,14.575,14.378,14.378,0,0,0-1.9,7.287c0,6.584,4.068,11.925,9.107,11.925s9.112-5.341,9.112-11.925a14.376,14.376,0,0,0-1.9-7.287,14.924,14.924,0,0,0,0-14.575,14.913,14.913,0,0,0,0-14.569A14.924,14.924,0,0,0,1047.238,544.842Z" transform="translate(-438.495 -338.087)"/><ellipse class="a" cx="9.106" cy="11.925" rx="9.106" ry="11.925" transform="translate(592.401 172.968)"/><ellipse class="a" cx="9.106" cy="11.925" rx="9.106" ry="11.925" transform="translate(592.401 158.393)"/><path class="b" d="M981.148,273.453a43.875,43.875,0,0,1-3.394-4.992l23.937-3.929-25.89.192a43.713,43.713,0,0,1-.831-34.572l34.729,18.015-32.026-23.542a43.632,43.632,0,1,1,72.061,48.816,43.056,43.056,0,0,1,4.974,7.962l-31.067,16.15,33.125-11.117a43.655,43.655,0,0,1-7.038,40.97,43.632,43.632,0,1,1-68.574,0,43.632,43.632,0,0,1,0-53.953Z" transform="translate(-413.736 -202.87)"/><path class="c" d="M1059.107,370.327a43.442,43.442,0,0,1-9.339,26.976,43.632,43.632,0,1,1-68.574,0C975.319,389.883,1059.107,365.434,1059.107,370.327Z" transform="translate(-413.753 -272.767)"/><rect class="d" width="484.669" height="264.999" rx="20.42" transform="translate(99.665 4.043)"/><path class="e" d="M172,29.5H327.745V281.714H183.867A11.867,11.867,0,0,1,172,269.847Z" transform="translate(-72.044 -12.381)"/><path class="a" d="M667.669,221.741v6.735H183v-6.735a11.861,11.861,0,0,1,11.867-11.861H655.8A11.861,11.861,0,0,1,667.669,221.741Z" transform="translate(-83.335 -205.831)"/><circle class="f" cx="3.487" cy="3.487" r="3.487" transform="translate(108.673 10.145)"/><circle class="e" cx="3.487" cy="3.487" r="3.487" transform="translate(117.39 10.145)"/><circle class="b" cx="3.487" cy="3.487" r="3.487" transform="translate(126.107 10.145)"/><path class="g" d="M347.5,429.38" transform="translate(-152.237 -297.771)"/><path class="g" d="M333.5,428.38" transform="translate(-146.373 -297.352)"/><rect class="h" width="201.655" height="6.393" rx="1.24" transform="translate(354.785 54.091)"/><rect class="b" width="42.423" height="14.528" rx="1.24" transform="translate(511.111 66.295)"/><rect class="h" width="201.655" height="6.393" rx="1.24" transform="translate(354.785 131.824)"/><path class="b" d="M1.577,0H40.846a1.577,1.577,0,0,1,1.577,1.577V12.951a1.577,1.577,0,0,1-1.577,1.577H1.577A1.577,1.577,0,0,1,0,12.951V1.577A1.577,1.577,0,0,1,1.577,0Z" transform="translate(511.111 144.028)"/><rect class="h" width="201.655" height="6.393" rx="1.24" transform="translate(354.785 210.859)"/><rect class="b" width="42.423" height="14.528" rx="1.24" transform="translate(511.111 223.063)"/><circle class="a" cx="28.778" cy="28.778" r="28.778" transform="translate(282.242 116.412)"/><path class="i" d="M564.295,457.357a.807.807,0,0,1-.122.192,18.019,18.019,0,0,1-1.017,1.505,28.673,28.673,0,0,1-12.64,9.85c-.5.209-1.011.4-1.528.581a10.2,10.2,0,0,1-1.325-1.273,9.943,9.943,0,0,1-2.324-4.818,12.2,12.2,0,0,1-2.325.221,1.549,1.549,0,0,1-.233,0c-5.986-.1-11.123-4.486-13.418-10.74l-.093-.267a21.729,21.729,0,0,1-.453-12.634h0c.029-.139.076-.279.116-.413,1.964-6.747,7.148-11.663,13.314-12.053h1.331c7.811.285,14.1,7.84,14.389,17.289a10.036,10.036,0,0,1,4.422,9.833A10.272,10.272,0,0,1,564.295,457.357Z" transform="translate(-227.88 -296.988)"/><path class="c" d="M564.3,457.507a18.076,18.076,0,0,1-1.017,1.505,9.5,9.5,0,0,0-1.552-2.063,10.953,10.953,0,0,0,.1-1.447,10.031,10.031,0,0,0-4.527-8.386c-.32-9.647-6.881-17.353-14.918-17.353-5.742,0-10.722,3.917-13.227,9.67-.064.151-.122.3-.192.453h0c-.209.5-.4,1.005-.581,1.534a21.292,21.292,0,0,1,.854-3.127l.081-.081c2.237-6.166,7.235-10.542,13.1-10.8h1.331c7.7.465,13.866,7.985,14.162,17.335a10.019,10.019,0,0,1,4.434,9.833A9.914,9.914,0,0,1,564.3,457.507Z" transform="translate(-228.005 -296.946)"/><path class="j" d="M537.155,462.2a3.776,3.776,0,0,1-.2,1.743c-.343.8-1.162,1.511-.935,2.325a1.784,1.784,0,0,0,1.255,1.011c2.5.848,5.23.343,7.88.459a25.427,25.427,0,0,0,2.656.093,4.231,4.231,0,0,0,2.464-.86,21.1,21.1,0,0,1-3.876-2.435,4.359,4.359,0,0,1-.785-.75,4.6,4.6,0,0,1-.68-2.662v-2.766c-1.895,0-3.783-.029-5.678-.029-.581,0-2.458-.145-2.673.511-.1.325.3,1.284.366,1.65A16.429,16.429,0,0,1,537.155,462.2Z" transform="translate(-231.186 -309.892)"/><path class="c" d="M537.155,462.2a3.776,3.776,0,0,1-.2,1.743c-.343.8-1.162,1.511-.935,2.325a1.784,1.784,0,0,0,1.255,1.011c2.5.848,5.23.343,7.88.459a25.427,25.427,0,0,0,2.656.093,4.231,4.231,0,0,0,2.464-.86,21.1,21.1,0,0,1-3.876-2.435,4.359,4.359,0,0,1-.785-.75,4.6,4.6,0,0,1-.68-2.662v-2.766c-1.895,0-3.783-.029-5.678-.029-.581,0-2.458-.145-2.673.511-.1.325.3,1.284.366,1.65A16.429,16.429,0,0,1,537.155,462.2Z" transform="translate(-231.186 -309.892)"/><circle class="j" cx="6.677" cy="6.677" r="6.677" transform="translate(303.186 138.118)"/><path class="k" d="M546.443,478.179a4.44,4.44,0,0,1-.064.581,17.677,17.677,0,0,1-.947,3.167,15.223,15.223,0,0,1-.883,2.022c-.25.447-.581.86-.849,1.3l-.383.622a8.477,8.477,0,0,0-.622,1.313,24.676,24.676,0,0,1-3.411.622,28.493,28.493,0,0,1-3.388.2c-6.073,0-12.622-1.575-17.266-4.794,0,0,.68-.471.581-.581,0-.267-.029-.529-.029-.8a5.972,5.972,0,0,1,.331-2.022,4.069,4.069,0,0,1,1.005-1.65c.581-.581,1.36-.941,1.982-1.5a5.88,5.88,0,0,0,1.621-2.819h0c.145-.465.25-.959.349-1.435a6.968,6.968,0,0,1,.535-1.889,1.662,1.662,0,0,1,.128-.221,2.262,2.262,0,0,1,.314-.413,6.8,6.8,0,0,1,2.046-1.372c.633-.325,1.523-.581,1.964-.041v.041a8.2,8.2,0,0,1,.366,1.023c.354.732,1.342.825,2.144.808a67.992,67.992,0,0,0,8.473-.709l1.36-.221c.982-.163,1.668.7,2.22,1.534C545.45,473.106,546.658,475.587,546.443,478.179Z" transform="translate(-223.917 -314.015)"/><path class="l" d="M529.968,486.18c-.622.139-.982.767-1.273,1.337a5.167,5.167,0,0,0-.691,3.1,4.375,4.375,0,0,0,.134,1.261,1.673,1.673,0,0,0,.732,1" transform="translate(-227.834 -321.563)"/><ellipse class="i" cx="3.684" cy="7.468" rx="3.684" ry="7.468" transform="translate(303.425 141.72) rotate(-75.66)"/><path class="c" d="M541.809,444.132c-3.551-.907-6.177-2.906-6.392-4.742a1.859,1.859,0,0,0-.349.7c-.506,1.97,2.324,4.393,6.317,5.416s7.642.25,8.136-1.743a1.88,1.88,0,0,0,.046-.674C548.5,444.556,545.29,445.021,541.809,444.132Z" transform="translate(-230.778 -301.964)"/><path class="j" d="M561.15,486.782c0,1.011,0,2.017-.064,3.016-.5.209-1.011.4-1.528.581a21.328,21.328,0,0,1-2.325.662,24.669,24.669,0,0,1-3.411.622,39.884,39.884,0,0,1-.436-7.165h0a11.541,11.541,0,0,1,1.871-5.23,4.469,4.469,0,0,1,1.691-1.633,2.08,2.08,0,0,1,2.226.174,3.184,3.184,0,0,1,.8,1.482,24.562,24.562,0,0,1,.941,3.342,3.07,3.07,0,0,0,.058.383A23.019,23.019,0,0,1,561.15,486.782Z" transform="translate(-238.449 -317.882)"/><path class="a" d="M554.765,568a28.65,28.65,0,0,1-3.487,13.779c-.256.465-.523.936-.825,1.4a.809.809,0,0,1-.122.192,17.994,17.994,0,0,1-1.017,1.505,28.44,28.44,0,0,1-8.223,7.625l-.169.116a29.758,29.758,0,0,1-3.283,1.7c-.314.139-.639.273-.965.407s-.628.256-.953.36c-.163.07-.337.128-.506.186h0a.226.226,0,0,0-.058,0c-.354.128-.721.238-1.081.349l-.273.064c-.325.1-.651.18-.976.25a24.58,24.58,0,0,1-3.417.622h0a28.042,28.042,0,0,1-3.365.2H525.7a26.2,26.2,0,0,1-4.649-.43l-.279-.047c-.285-.046-.581-.1-.854-.174h0l-.541-.122a17,17,0,0,1-1.7-.465,27.485,27.485,0,0,1-3.33-1.238l-.122-.052a28.431,28.431,0,0,1-4.527-2.574,3.092,3.092,0,0,1-.349-.238A28.772,28.772,0,1,1,554.823,568Z" transform="translate(-214.973 -343.779)"/><path class="i" d="M549.874,572.212a6.108,6.108,0,0,1-12.2,0v-.291a6.1,6.1,0,1,1,12.2,0C549.868,572.015,549.874,572.114,549.874,572.212Z" transform="translate(-231.892 -354.921)"/><path class="c" d="M549.874,575.04a6.108,6.108,0,0,1-12.2,0v-.291a9.635,9.635,0,0,1,12.2,0C549.868,574.843,549.874,574.942,549.874,575.04Z" transform="translate(-231.892 -357.749)"/><circle class="i" cx="9.641" cy="9.641" r="9.641" transform="translate(302.233 215.362)"/><path class="i" d="M536.937,570.1a6.108,6.108,0,0,1,5.3-6.05,6.108,6.108,0,1,0,0,12.105A6.108,6.108,0,0,1,536.937,570.1Z" transform="translate(-230.904 -354.156)"/><path class="i" d="M527.108,591.079a6.108,6.108,0,0,1-1.029-7.979,6.7,6.7,0,0,0-.581.581,6.108,6.108,0,1,0,9.159,8.078,6.453,6.453,0,0,0,.494-.639A6.108,6.108,0,0,1,527.108,591.079Z" transform="translate(-226.113 -362.159)"/><path class="m" d="M537.95,608.5a5.359,5.359,0,0,0-1.441.506,2.5,2.5,0,0,0-.535,2.691,7.422,7.422,0,0,0,3.929,5.12,9.712,9.712,0,0,0,3.963.581c1.459,0,3.109-.2,4.016-1.348a5.331,5.331,0,0,0,.82-2.011,15.974,15.974,0,0,0,.738-5.347,3.57,3.57,0,0,1-2.569-.43c-.7-.558-.854-1.621-1.162-2.5a.657.657,0,0,0-.227-.36.739.739,0,0,0-.407-.058,16.441,16.441,0,0,1-2.778-.116c-.581-.076-1.987-.674-2.417-.168-.314.366-.116,1.482-.36,2A2.766,2.766,0,0,1,537.95,608.5Z" transform="translate(-231.12 -371.271)"/><path class="n" d="M537.95,608.5a5.359,5.359,0,0,0-1.441.506,2.5,2.5,0,0,0-.535,2.691,7.422,7.422,0,0,0,3.929,5.12,9.712,9.712,0,0,0,3.963.581c1.459,0,3.109-.2,4.016-1.348a5.331,5.331,0,0,0,.82-2.011,15.974,15.974,0,0,0,.738-5.347,3.57,3.57,0,0,1-2.569-.43c-.7-.558-.854-1.621-1.162-2.5a.657.657,0,0,0-.227-.36.739.739,0,0,0-.407-.058,16.441,16.441,0,0,1-2.778-.116c-.581-.076-1.987-.674-2.417-.168-.314.366-.116,1.482-.36,2A2.766,2.766,0,0,1,537.95,608.5Z" transform="translate(-231.12 -371.271)"/><circle class="m" cx="6.741" cy="6.741" r="6.741" transform="translate(304.999 222.917)"/><path class="k" d="M553.116,617.614c-.047.058-.093.128-.145.186l-.285.372a21.862,21.862,0,0,0-3.446,5.724c-.314.139-.639.273-.965.407s-.628.256-.953.36c-.163.07-.337.128-.506.186h0a.211.211,0,0,0-.058,0c-.354.128-.721.238-1.081.349l-.273.064c-.325.1-.651.18-.976.25a24.6,24.6,0,0,1-3.417.622h0a28.069,28.069,0,0,1-3.365.2H537.3a26.209,26.209,0,0,1-4.649-.43l-.279-.046c-.285-.047-.581-.1-.854-.174h0l-.54-.122a17.034,17.034,0,0,1-1.7-.465,5.114,5.114,0,0,1,1.25-2.615c-1.308-1.563-3.458-2.179-4.847-3.655a4.712,4.712,0,0,1-.337-.442,1.867,1.867,0,0,1-.18-.355.993.993,0,0,1-.076-.308,2.685,2.685,0,0,1-.052-.651c-.035-1.651.041-3.533,1.319-4.568a6.016,6.016,0,0,1,2.08-.93,25.543,25.543,0,0,0,3.777-1.523,3.022,3.022,0,0,1,.221.814c.116.674.1,1.383.261,2.051a4.953,4.953,0,0,0,2.069,2.906,7.9,7.9,0,0,0,3.405,1.238c1.2.174,2.15-.447,3.278-.872a3.8,3.8,0,0,0,1.354-.767,3.121,3.121,0,0,0,.761-2.121c0-.767-.087-1.534-.041-2.325a1.119,1.119,0,0,1,.029-.238.97.97,0,0,1,.662-.912,1.238,1.238,0,0,1,.633.116l2.173.831a15.062,15.062,0,0,1,2.708,1.25,7.514,7.514,0,0,1,3.388,5.591Z" transform="translate(-226.598 -373.352)"/><path class="c" d="M532.8,630.414l-.279-.046c-.285-.047-.581-.1-.854-.174h0l-.541-.122a16.99,16.99,0,0,1-1.7-.465,27.54,27.54,0,0,1-3.33-1.238,14.388,14.388,0,0,1-.581-5.474,10.091,10.091,0,0,1,.488-2.325c1.22,1.162,3.3.506,4.684,1.436a2.905,2.905,0,0,1,.895,1.023,7.722,7.722,0,0,1,.779,2.377c.087.453.169.912.238,1.372v.436c.047.325.087.663.1.994A17.64,17.64,0,0,1,532.8,630.414Z" transform="translate(-226.781 -377.853)"/><path class="k" d="M532.321,629.991c-.285-.046-.581-.1-.854-.174h0l-.54-.122a17.035,17.035,0,0,1-1.7-.465,27.522,27.522,0,0,1-3.33-1.238l-.122-.052a14.82,14.82,0,0,1-.738-6.084,10.867,10.867,0,0,1,.476-2.185c1.22,1.162,3.3.517,4.684,1.447a3.265,3.265,0,0,1,1.162,1.534,10.177,10.177,0,0,1,.506,1.842c.128.68.25,1.36.331,2.051a1.653,1.653,0,0,1,.029.291v.459A19.857,19.857,0,0,1,532.321,629.991Z" transform="translate(-226.578 -377.476)"/><path class="c" d="M567.209,626.7a29.714,29.714,0,0,1-3.283,1.7c-.314.139-.639.273-.965.407s-.628.256-.953.36c-.163.07-.337.128-.506.186h0a.227.227,0,0,0-.058,0c-.354.128-.721.238-1.081.349l-.273.064a14.322,14.322,0,0,1,.058-1.575c.041-.413.087-.825.145-1.238a.609.609,0,0,1,.029-.227.628.628,0,0,0,0-.145c.07-.4.145-.8.221-1.191a7.283,7.283,0,0,1,.779-2.377,2.906,2.906,0,0,1,.9-1c1.383-.93,3.487-.3,4.649-1.435a10.26,10.26,0,0,1,.471,2.08A13.558,13.558,0,0,1,567.209,626.7Z" transform="translate(-241.283 -377.857)"/><path class="k" d="M567.574,626.189l-.169.116a29.73,29.73,0,0,1-3.283,1.7c-.314.14-.639.273-.965.407s-.628.256-.953.36c-.163.07-.337.128-.506.186h0a.211.211,0,0,0-.058,0c-.354.128-.721.238-1.081.349,0-.686,0-1.366.058-2.046a2.036,2.036,0,0,1,.047-.529v-.418c.087-.628.192-1.238.32-1.854a10.183,10.183,0,0,1,.505-1.842,3.266,3.266,0,0,1,1.162-1.534c1.383-.93,3.487-.3,4.649-1.447a9.939,9.939,0,0,1,.488,2.255A13.615,13.615,0,0,1,567.574,626.189Z" transform="translate(-241.48 -377.464)"/><ellipse class="i" cx="8.089" cy="5.393" rx="8.089" ry="5.393" transform="translate(303.517 217.925)"/><path class="n" d="M535.736,633.281v.767a.161.161,0,0,0,0,.047h0l-.54-.122a1.779,1.779,0,0,1,0-.308,3.754,3.754,0,0,1,1.3-2.842.863.863,0,0,1,.18-.145,3.439,3.439,0,0,1,1.046-.581,3.126,3.126,0,0,1,1.092-.209.665.665,0,0,1,.151,0,2.219,2.219,0,0,1,.279,0h-.192a3.7,3.7,0,0,0-2.325,1.162,1.232,1.232,0,0,0-.18.209,3.72,3.72,0,0,0-.808,2.022Z" transform="translate(-230.853 -381.754)"/><path class="k" d="M542.05,633.668a4.712,4.712,0,0,1-.128,1.081,26.193,26.193,0,0,1-4.649-.43l-.279-.046c-.285-.047-.581-.1-.854-.174h0v-.814a4.2,4.2,0,0,1,.767-2.168,1.3,1.3,0,0,1,.18-.221,2.671,2.671,0,0,1,1.017-.779,2.265,2.265,0,0,1,.976-.221.393.393,0,0,1,.116,0,1.633,1.633,0,0,1,.238,0A3.629,3.629,0,0,1,542.05,633.668Z" transform="translate(-231.252 -381.758)"/><path class="n" d="M560.517,633.091c-.163.07-.337.128-.506.186h0a3.673,3.673,0,0,0-1.034-2.208l-.174-.174a3.817,3.817,0,0,0-2.08-.947h-.192a2.078,2.078,0,0,1,.267,0,.732.732,0,0,1,.157,0,3.41,3.41,0,0,1,1.1.209,3.741,3.741,0,0,1,.8.384.673.673,0,0,1,.174.128,3.7,3.7,0,0,1,1.494,2.424Z" transform="translate(-239.792 -381.779)"/><path class="k" d="M558.273,633.264h0a.226.226,0,0,0-.058,0c-.354.128-.721.238-1.081.349l-.273.064c-.325.1-.651.18-.976.25a24.611,24.611,0,0,1-3.417.622h0a4.442,4.442,0,0,1-.087-.889c0-1.929,1.162-3.522,2.621-3.742a1.491,1.491,0,0,1,.232,0,.357.357,0,0,1,.111,0,2.277,2.277,0,0,1,.988.221,2.644,2.644,0,0,1,.779.529,1.127,1.127,0,0,1,.174.163A4.173,4.173,0,0,1,558.273,633.264Z" transform="translate(-238.054 -381.766)"/><path class="c" d="M541.874,591.86c-4.335,0-7.874-2.266-8.084-5.12v.267c0,2.981,3.626,5.393,8.1,5.393s8.089-2.412,8.089-5.393v-.267C549.742,589.593,546.2,591.86,541.874,591.86Z" transform="translate(-230.267 -363.683)"/><path class="a" d="M497.17,298.242a28.708,28.708,0,0,0,3.487,13.773c.261.471.529.941.825,1.4a.838.838,0,0,0,.128.192,17.081,17.081,0,0,0,1.04,1.488,27.59,27.59,0,0,0,4.149,4.585,10.965,10.965,0,0,0,.907.779,25.82,25.82,0,0,0,3.161,2.261l.174.116a31.254,31.254,0,0,0,3.278,1.709l.97.4c.32.134.622.262.953.366.163.064.331.122.506.18h.081q.529.192,1.081.349l.267.064c.325.1.657.186.982.25.442.116.878.215,1.331.3.68.134,1.383.25,2.08.331h0a27.983,27.983,0,0,0,3.365.2h.343a26.778,26.778,0,0,0,4.649-.436,2.149,2.149,0,0,0,.279-.046c.285-.046.581-.1.854-.174h0c.186-.035.354-.076.541-.122a16.468,16.468,0,0,0,1.7-.459c.343-.11.68-.215,1.017-.331.68-.238,1.36-.494,2.011-.785a2.255,2.255,0,0,0,.3-.122l.128-.058a26.482,26.482,0,0,0,2.511-1.3c.692-.4,1.366-.825,2.017-1.279h.041a2.345,2.345,0,0,0,.3-.209,28.772,28.772,0,1,0-45.451-23.42Z" transform="translate(-214.928 -230.779)"/><path class="k" d="M550.474,336.214a2.673,2.673,0,0,1,.843,1.424,3.646,3.646,0,0,1-2.47-.581,31.506,31.506,0,0,0-7.6-2.447,1.163,1.163,0,0,1-.581-.221.988.988,0,0,1,.035-1.22c.29-.3.837-.262,1.232-.279a11.222,11.222,0,0,1,8.537,3.3Z" transform="translate(-233.068 -257.349)"/><path class="o" d="M539.711,332.707a3.487,3.487,0,0,1-1.923,1.935c-.471.169-.976.2-1.453.331a1.61,1.61,0,0,0-1.127.889,1.908,1.908,0,0,0-.087.628,13.518,13.518,0,0,0,.668,5.928A12.986,12.986,0,0,0,539,346.457a13.627,13.627,0,0,0,4.946,3.446,3.709,3.709,0,0,0,3.394-.32,5.036,5.036,0,0,0,.947-1.1,13.288,13.288,0,0,0,1.627-2.772c.8-2.046.529-4.335.25-6.515a.523.523,0,0,0-.14-.349.546.546,0,0,0-.407-.07,2.394,2.394,0,0,1-2.423-1.395,3.636,3.636,0,0,1-.134-1.279l.041-2.487a2.111,2.111,0,0,0-.093-.79,1.988,1.988,0,0,0-1.04-.9,25.705,25.705,0,0,0-4.231-1.668c-.639-.186-1.127-.5-1.412.186S540.043,331.986,539.711,332.707Z" transform="translate(-230.807 -256.155)"/><path class="c" d="M539.711,332.707a3.487,3.487,0,0,1-1.923,1.935c-.471.169-.976.2-1.453.331a1.61,1.61,0,0,0-1.127.889,1.908,1.908,0,0,0-.087.628,13.518,13.518,0,0,0,.668,5.928A12.986,12.986,0,0,0,539,346.457a13.627,13.627,0,0,0,4.946,3.446,3.709,3.709,0,0,0,3.394-.32,5.036,5.036,0,0,0,.947-1.1,13.288,13.288,0,0,0,1.627-2.772c.8-2.046.529-4.335.25-6.515a.523.523,0,0,0-.14-.349.546.546,0,0,0-.407-.07,2.394,2.394,0,0,1-2.423-1.395,3.636,3.636,0,0,1-.134-1.279l.041-2.487a2.111,2.111,0,0,0-.093-.79,1.988,1.988,0,0,0-1.04-.9,25.705,25.705,0,0,0-4.231-1.668c-.639-.186-1.127-.5-1.412.186S540.043,331.986,539.711,332.707Z" transform="translate(-230.807 -256.155)"/><circle class="o" cx="7.59" cy="7.59" r="7.59" transform="translate(308.044 63.389)"/><path class="d" d="M537.061,357.628c.68.134,1.383.25,2.081.331h0a27.975,27.975,0,0,0,3.365.2h.343a26.772,26.772,0,0,0,4.649-.436,2.159,2.159,0,0,0,.279-.046c.285-.047.581-.1.854-.174h0c.186-.035.355-.076.541-.122a16.438,16.438,0,0,0,1.7-.459c.343-.11.68-.215,1.017-.331.68-.238,1.36-.494,2.011-.785a14.214,14.214,0,0,1-.413-1.575,17.4,17.4,0,0,1-.221-3.44c0-.924.041-1.842,0-2.76a6.79,6.79,0,0,0-.32-2.2,2.806,2.806,0,0,0-1.418-1.645,3.91,3.91,0,0,0-3.022-.151,2.069,2.069,0,0,0-.279.18,1.447,1.447,0,0,0-.418.581c-.279.7-.581,1.4-.848,2.1a6.654,6.654,0,0,1-.68,1.383,3.429,3.429,0,0,1-3.76,1.238,2.239,2.239,0,0,1-.25-.1c-1.162-.471-2.226-1.488-3.44-1.215a2.29,2.29,0,0,0-1.517,1.313.581.581,0,0,0-.041.1,5.9,5.9,0,0,0-.418,1.906A25.421,25.421,0,0,0,537.061,357.628Z" transform="translate(-231.51 -261.922)"/><path class="k" d="M513.74,346.153a10.932,10.932,0,0,0,.907.779,25.831,25.831,0,0,0,3.161,2.261l.174.116a31.226,31.226,0,0,0,3.278,1.709l.97.4c.32.134.622.261.953.366.163.064.331.122.506.18h.081q.529.192,1.081.349l.267.064c.325.1.657.186.982.25.442.116.877.215,1.331.3.68.134,1.383.25,2.081.331h0a27.975,27.975,0,0,0,3.365.2h.343a26.778,26.778,0,0,0,4.649-.436,2.16,2.16,0,0,0,.279-.047c.285-.046.581-.1.854-.174h0c.186-.035.354-.076.541-.122a16.457,16.457,0,0,0,1.7-.459c.343-.11.68-.215,1.017-.331.68-.238,1.36-.494,2.011-.784a2.274,2.274,0,0,0,.3-.122l.128-.058a26.489,26.489,0,0,0,2.51-1.3,43.468,43.468,0,0,0,1.453-4.649.576.576,0,0,1,0-.093c-.907-1.61-1.709-3.283-2.609-4.893a3.737,3.737,0,0,0-2.993-2.255,7.323,7.323,0,0,0-1.947-.36,7.318,7.318,0,0,1-1.116-.192c-.756-.168-1.592-.331-1.871,0h0a.1.1,0,0,0-.041.076,1.592,1.592,0,0,0,.134,1.162c.128.366.3.75.384,1.063a1.589,1.589,0,0,1,.087.465,15.86,15.86,0,0,1-.07,2.04c-.163.988-.709,1.86-.965,2.819-.116.453-.174.924-.25,1.383a14.881,14.881,0,0,1-.808,3.034,2.072,2.072,0,0,1-.3.581c-.477.581-1.267.36-2.017.25-.546-.465-.517-1.29-.581-1.987a10.459,10.459,0,0,0-1.057-3.359l-.2-.418c-.581-1.2-1.162-2.4-1.709-3.609-.7-1.5-1.43-3.214-.848-4.765.168-.465.442-.878.628-1.325a1.438,1.438,0,0,0,.076-.2,1.936,1.936,0,0,0,.087-.529,1.163,1.163,0,0,0-.267-.9.467.467,0,0,0-.116-.122.187.187,0,0,0-.07-.046,1.383,1.383,0,0,0-1.267-.058,5.31,5.31,0,0,0-.668.3,31.962,31.962,0,0,0-3.3,2.133,1.651,1.651,0,0,0-.686.8,5.976,5.976,0,0,1-.11.657c-.163.413-.657.535-1.081.628a13.232,13.232,0,0,0-8.438,6.2,6.813,6.813,0,0,0-.721,1.6A6.657,6.657,0,0,0,513.74,346.153Z" transform="translate(-221.869 -257.235)"/><path class="i" d="M549.276,312.281c-1.029,1.052-2.673,1.093-4.144,1.069l.047-.581-2.063.738a5.466,5.466,0,0,0,1.354-1.453.924.924,0,0,0-1.005-.064,2.092,2.092,0,0,0-.75.744,6.776,6.776,0,0,0-.75,6.032,1.337,1.337,0,0,1-1.331-.087,2.324,2.324,0,0,1-.854-1.081,1.129,1.129,0,0,0-.541-.692.581.581,0,0,0-.651.291,1.232,1.232,0,0,0-.14.738c.041.581.477,1.162.581,1.743s.965,1.046.511,1.435a6.632,6.632,0,0,1-1.65.389.715.715,0,0,1-.477-.471c-.459-1.011-.3-2.191-.581-3.266a8.024,8.024,0,0,0-1.2-2.377,3.319,3.319,0,0,0-.453-.61,1.529,1.529,0,0,1-.442-.506c-.076-.209.07-.517.291-.477a9.078,9.078,0,0,0-1.162-.953c.407-.511.8-1.034,1.162-1.557.134-.186.273-.413.174-.616a.621.621,0,0,0-.232-.227l-1.029-.7c0-.488.97-.308,1.122-.767a.626.626,0,0,0,0-.372l-.36-1.313,1.371.622a.93.93,0,0,0,.523.122c.36-.052.535-.477.581-.843a2.392,2.392,0,0,1,.14-1.081h1.86a1.215,1.215,0,0,0-.227-.878l4.579-.256a6.393,6.393,0,0,1,2.325.163,1.824,1.824,0,0,0,.773.174.462.462,0,0,0,.453-.529,8.316,8.316,0,0,1,1.865,1.435,1.8,1.8,0,0,0,.529.436.581.581,0,0,0,.645-.076c.128-.134.186-.372.372-.384s.209.093.279.18a4.536,4.536,0,0,1,.633,1.1,3.965,3.965,0,0,0,.959-.256,1.035,1.035,0,0,0-.174,1.162c.151.389.43.721.616,1.093a4.534,4.534,0,0,1,.366,1.267c.093.546.093,1.238-.389,1.505a1.3,1.3,0,0,1-1.337-.3C550.34,311.165,550.136,311.4,549.276,312.281Z" transform="translate(-230.301 -245.585)"/><path class="k" d="M515.3,355.342a25.825,25.825,0,0,0,3.161,2.261l.174.116a31.26,31.26,0,0,0,3.278,1.709l.971.4c.32.134.622.262.953.366.163.064.331.122.506.18h0c-.2-.581-.337-1.162-.517-1.743a9.844,9.844,0,0,0-2.493-4.1c-1-1-2.592-2.458-4.068-1.575a4.648,4.648,0,0,0-1.162,1.122,5.188,5.188,0,0,0-.721,1.064A1.465,1.465,0,0,0,515.3,355.342Z" transform="translate(-222.522 -265.645)"/><path class="k" d="M562.85,359.827c.68-.238,1.36-.494,2.011-.785a2.261,2.261,0,0,0,.3-.122l.128-.058a26.527,26.527,0,0,0,2.511-1.3c.692-.4,1.366-.825,2.016-1.279h.041a12.1,12.1,0,0,1,0-1.947,1.528,1.528,0,0,0-.041-.651,1.551,1.551,0,0,0-.325-.447,2.653,2.653,0,0,1-.238-.273c-.657-.738-1.191-1.534-2.325-1.418a3.488,3.488,0,0,0-2.586,2.179,1.991,1.991,0,0,0-.128.325,22.521,22.521,0,0,0-.755,3.086c-.151.645-.343,1.267-.482,1.912C562.937,359.293,562.885,359.56,562.85,359.827Z" transform="translate(-242.439 -265.167)"/><path class="p" d="M337.246,660.43h0l-.256.14Z" transform="translate(-147.835 -394.549)"/><path class="q" d="M275.171,573.333c-2.243,6.462.378,16.952,1.592,21.63a65.1,65.1,0,0,1,1.592,10.3,21.7,21.7,0,0,0,8.241-.186l-1.964-9.641c1.4-5.713,0-20.973,0-20.973a36.674,36.674,0,0,0,3.487-14.889c.273-8.845,2.452-11.7,2.522-11.8h0c4.492,2.325,10.2,27.435,10.2,27.435-.471,6.085.093,15.447,1.964,20.5a25.433,25.433,0,0,1,1.406,10.019,3.086,3.086,0,0,0,2.545.488,17.446,17.446,0,0,0,5.881-2.737s-1.029-27.313-1.778-28.365,0-6.927,0-6.927l-1.22-9.554s.186-16.2-1.592-19c-1.534-2.429-1.889-6.689-1.958-7.81v-.273l-2.708-3.249s-26.215-1.964-28.185,0a5.646,5.646,0,0,0-.959,2.964,67.076,67.076,0,0,0,.081,11.175s.784,5.149,1.912,10.391a22.821,22.821,0,0,1,0,9.554A28.563,28.563,0,0,1,275.171,573.333Z" transform="translate(-121.46 -338.84)"/><path class="r" d="M278.408,668.727c1.162,1.546,8.055.889,9.223.407.715-.291.663-1.639.471-3.022-.122-.883-.3-1.784-.378-2.441a22.129,22.129,0,0,1,.581-5.1s-1.546,1.639-1.918,0a1.79,1.79,0,0,0-1.337-1.267,3.486,3.486,0,0,0-2.429.151c-1.22.523-3.249,1.65-2.906,3.173.511,2.15-1.313,5.23-1.313,5.23a2.324,2.324,0,0,0,0,2.906Z" transform="translate(-123.082 -393.176)"/><path class="c" d="M278.417,675.185c1.162,1.546,8.055.889,9.223.407.715-.291.662-1.639.471-3.022a7.914,7.914,0,0,1-4.068.436,12.419,12.419,0,0,0-1.47-.046,33.409,33.409,0,0,1-4.469-.087A2.232,2.232,0,0,0,278.417,675.185Z" transform="translate(-123.09 -399.634)"/><path class="c" d="M312.755,588.577c-.471,6.084.093,15.447,1.964,20.5a25.432,25.432,0,0,1,1.406,10.019,3.086,3.086,0,0,0,2.545.488c-.581-3.946-2.97-20.962-4.515-34.4a56.306,56.306,0,0,0-9.966-25.843l-1.639,1.8C307.042,563.483,312.755,588.577,312.755,588.577Z" transform="translate(-133.41 -352.206)"/><path class="o" d="M283.62,432.228l1.162,5.62,5.6,9.409,6.9-2.946s9.385-9.833,3.487-11.239a5.1,5.1,0,0,1-1.958-.872,4.068,4.068,0,0,1-1.528-3.388,10.366,10.366,0,0,1,.959-4.027L286.165,421a19.677,19.677,0,0,1,.866,4.893c.093,3.289-1.133,4.911-2.133,5.684A3.644,3.644,0,0,1,283.62,432.228Z" transform="translate(-125.481 -294.261)"/><path class="c" d="M288,421a19.675,19.675,0,0,1,.866,4.893,7.72,7.72,0,0,0,.7.744,9.5,9.5,0,0,0,6.567,2.644,9.376,9.376,0,0,0,2.952-.471,10.366,10.366,0,0,1,.959-4.027Z" transform="translate(-127.315 -294.261)"/><path class="o" d="M285.58,411.448a9.5,9.5,0,1,0,2.781-6.763A9.554,9.554,0,0,0,285.58,411.448Z" transform="translate(-126.301 -286.261)"/><path class="c" d="M283.62,439.847l1.162,5.62,5.6,9.409,6.9-2.946s9.385-9.833,3.487-11.239a5.1,5.1,0,0,1-1.958-.872c1.063,2.906-3.33,9.019-3.33,9.019-.511.75-1.685.279-1.685.279-2.836-.43-8.049-8.572-8.9-9.926a3.643,3.643,0,0,1-1.284.657Z" transform="translate(-125.481 -301.88)"/><path class="c" d="M274.31,531.235c1.662.378,10.861,2.418,14.348,1.906,3.841-.581,11.3-.936,11.3-.936s4.754.256,6.212-.413v-.273l-2.708-3.249s-26.215-1.964-28.185,0A5.65,5.65,0,0,0,274.31,531.235Z" transform="translate(-121.581 -338.827)"/><path class="a" d="M287.236,449.187s4.94-6.84,3.074-9.507l8.345,3.423s5.021-.61,6.834,6.886a13.087,13.087,0,0,1,.314,3.806,11.315,11.315,0,0,0,1.371,5.689c2.063,4.12,1.592,13.575-2.621,14.529s-5.713.465-5.713.465.581,17.132,3,19.1-6.207,1.5-6.207,1.5-7.462.372-11.3.936-14.6-1.97-14.6-1.97,1.592-7.206,2.15-11.8,1.877-14.354,1.877-14.354L264.2,454.958s-1.685-7.816,4.213-11.28a66.455,66.455,0,0,1,8.136-4.318s5.928,9.653,9.019,10.123C285.55,449.472,286.724,449.943,287.236,449.187Z" transform="translate(-117.253 -301.951)"/><path class="c" d="M320.622,460.94a14.032,14.032,0,0,1-.471,4.312c-.564,1.22-2.621,7.956-2.621,7.956h4.678s-2.528-2.714-2.325-4.027S320.622,460.94,320.622,460.94Z" transform="translate(-139.684 -310.99)"/><path class="o" d="M298.1,491.6s10.338-2.528,11.3-4.684,3.621-6.974,3.621-6.974l-1.093-1.47-5.027,3.946s-5.992,4.777-8.8,5.23S298.1,491.6,298.1,491.6Z" transform="translate(-131.022 -318.333)"/><path class="n" d="M298.1,491.6s10.338-2.528,11.3-4.684,3.621-6.974,3.621-6.974l-1.093-1.47-5.027,3.946s-5.992,4.777-8.8,5.23S298.1,491.6,298.1,491.6Z" transform="translate(-131.022 -318.333)"/><path class="o" d="M283.62,480.08v5.608h.9a26.222,26.222,0,0,1,12.728,3.3l1.69.935.453.256,2.906-6.538-2.714-2.435h-.139a16.194,16.194,0,0,1-4.754-.1c-1.215-.413-2.592-1.639-6-.767-1.674.43-3.109,2.325-4.736,1.743Z" transform="translate(-125.481 -318.984)"/><path class="c" d="M266.721,457.983l-1.871,2.1v5.126s1.592,16.1,6.648,17.882,14.081-1.029,14.081-1.029,2.325-6.177,1.238-6.555-9.635-2.633-9.635-2.633.116-9.444-1.743-12.25c0,0,1.22-8.8-2.993-8.99S266.721,457.983,266.721,457.983Z" transform="translate(-117.619 -307.092)"/><path class="a" d="M266.237,457.983l-1.877,2.1v5.126s1.592,16.1,6.648,17.882,14.064-1.029,14.064-1.029,2.325-6.177,1.244-6.555-9.641-2.633-9.641-2.633.122-9.444-1.743-12.25c0,0,1.215-8.8-3-8.99S266.237,457.983,266.237,457.983Z" transform="translate(-117.413 -307.092)"/><path class="c" d="M288.193,415.518a3.7,3.7,0,0,1,.215-1.819,1.412,1.412,0,0,1,1.476-.86c.8.186,1.162,1.232,1.935,1.482a1.528,1.528,0,0,0,1.7-.877,4.405,4.405,0,0,0,.325-2.04v-2.325a4.033,4.033,0,0,1,.552-2.441,4.322,4.322,0,0,1,3.214-1.162,2.691,2.691,0,0,1,1.831.738,2.382,2.382,0,0,0,1.929.686,1.674,1.674,0,0,0,1.348-1.162.052.052,0,0,1,0-.029,9.548,9.548,0,1,0-14.2,12.675A24.54,24.54,0,0,1,288.193,415.518Z" transform="translate(-126.294 -286.274)"/><path class="a" d="M297.822,402.42a1.685,1.685,0,0,0,1.348-1.162c.076-.3.058-.628.145-.924.221-.738,1.005-1.122,1.528-1.679a3.752,3.752,0,0,0,.238-4.306,3.058,3.058,0,0,0-2.993-1.79c-.755.134-1.412.674-2.179.721a4.555,4.555,0,0,1-2.086-.674,7.864,7.864,0,0,0-5.178-.459,2.97,2.97,0,0,0-1.424.721,11.662,11.662,0,0,0-.755,1.064c-.878,1.116-2.441,1.331-3.83,1.581s-2.964.8-3.423,2.144a5.651,5.651,0,0,0,.163,2.772.8.8,0,0,1-.035.581c-.215.36-.761.209-1.162.3-.785.163-.988,1.162-1.017,1.987-.035.924-.058,1.848-.076,2.772a2.714,2.714,0,0,0,.878,2.325l3.092,3.714c1.371,1.65,2.824,3.568,2.551,5.7a1.326,1.326,0,0,0,1.633-.953,4.208,4.208,0,0,0-.1-2.11,25.7,25.7,0,0,1-.488-3.655,3.7,3.7,0,0,1,.215-1.819,1.406,1.406,0,0,1,1.482-.86c.8.186,1.162,1.226,1.935,1.482a1.534,1.534,0,0,0,1.7-.878,4.405,4.405,0,0,0,.325-2.04V404.64a3.942,3.942,0,0,1,.552-2.441,4.345,4.345,0,0,1,3.214-1.162,2.749,2.749,0,0,1,1.831.738A2.365,2.365,0,0,0,297.822,402.42Z" transform="translate(-122.737 -282.074)"/><path class="c" d="M306.6,460.54,303.7,472.587S301.36,472.57,306.6,460.54Z" transform="translate(-133.672 -310.823)"/><path class="c" d="M291.83,457.08s3.841,6.288,2.325,12.785l-.715.052S294.736,466.913,291.83,457.08Z" transform="translate(-128.919 -309.374)"/><path class="c" d="M284,518.059s-4.713-1.557-5.056,2.057C278.94,520.117,279.829,517.635,284,518.059Z" transform="translate(-123.52 -334.776)"/><path class="c" d="M310.55,482.53s.936,6.555-.75,9.176a20.463,20.463,0,0,0,8.252,1.122l.581-10.3Z" transform="translate(-136.446 -320.034)"/><path class="c" d="M310,490.767l.453.256,2.906-6.538-2.714-2.435H310.5C310.535,482.364,311.29,488,310,490.767Z" transform="translate(-136.53 -319.833)"/><path class="a" d="M310.55,482.05s.936,6.555-.75,9.176a20.589,20.589,0,0,0,8.252,1.122l3.278-10.3Z" transform="translate(-136.446 -319.833)"/><path class="r" d="M324.988,664.571a2.115,2.115,0,0,0,1.819,1.854c2.54.383,8.665,1.348,10.211,2.086,1.97.936,9.74.279,10.112-.657a1.471,1.471,0,0,0-.134-1.122,2.98,2.98,0,0,0-1.255-1.354,3.759,3.759,0,0,0-.581-.25c-1.464-.488-4.225-1.523-4.975-2.609a31.624,31.624,0,0,1-4.428-4.649,2.249,2.249,0,0,0-1.8-1.122c-.819-.035-1.743.378-2.1,2.173,0,0-4.492,2.563-5.707.314,0,0-.192,3.452-.936,4.4h0A1.261,1.261,0,0,0,324.988,664.571Z" transform="translate(-142.802 -393.006)"/><path class="c" d="M324.991,669.54a2.115,2.115,0,0,0,1.819,1.854c2.54.384,8.665,1.348,10.211,2.086,1.97.936,9.74.279,10.112-.657A1.471,1.471,0,0,0,347,671.7a2.981,2.981,0,0,0-1.255-1.354c-1.267.843-4.068,1.668-10.263.7-5.9-.918-8.827-1.825-10.251-2.435h0A1.261,1.261,0,0,0,324.991,669.54Z" transform="translate(-142.804 -397.975)"/><g class="s" transform="translate(154.321 114.268)"><path d="M280.855,405.2v-.041a8.955,8.955,0,0,1-.285-2.127,13.185,13.185,0,0,0,.25,1.726,1.052,1.052,0,0,1,.035.442Z" transform="translate(-278.524 -401.002)"/><path d="M290.285,412.5a2.836,2.836,0,0,0-.232,1.075,3.238,3.238,0,0,1,.232-1.493,1.412,1.412,0,0,1,1.482-.86c.8.186,1.162,1.232,1.935,1.482a1.528,1.528,0,0,0,1.7-.878,4.392,4.392,0,0,0,.325-2.04v-2.325a4.032,4.032,0,0,1,.552-2.441,4.322,4.322,0,0,1,3.214-1.162,2.691,2.691,0,0,1,1.831.738,2.383,2.383,0,0,0,1.929.686,1.668,1.668,0,0,0,1.348-1.162c.076-.3.058-.628.145-.924.221-.738,1.005-1.122,1.528-1.68a3.022,3.022,0,0,0,.79-1.976,3.173,3.173,0,0,1-.79,2.4c-.523.581-1.308.941-1.528,1.674-.087.3-.07.622-.145.924a1.674,1.674,0,0,1-1.348,1.162,2.365,2.365,0,0,1-1.929-.692,2.72,2.72,0,0,0-1.831-.738,4.322,4.322,0,0,0-3.214,1.162,3.937,3.937,0,0,0-.552,2.441c-.006.848,0,1.563,0,2.325a4.381,4.381,0,0,1-.325,2.034,1.517,1.517,0,0,1-1.7.878c-.785-.25-1.133-1.29-1.935-1.476A1.4,1.4,0,0,0,290.285,412.5Z" transform="translate(-282.491 -399.54)"/><path d="M277.149,416.966a3.655,3.655,0,0,0,.8,1.29l3.092,3.714c1.3,1.563,2.679,3.371,2.574,5.37-.093-1.831-1.366-3.487-2.574-4.951l-3.092-3.713a2.714,2.714,0,0,1-.878-2.325A2.364,2.364,0,0,0,277.149,416.966Z" transform="translate(-277.049 -406.581)"/><path d="M289.933,433.815a2.144,2.144,0,0,0,.093-.506,2.6,2.6,0,0,1-.093.924,1.315,1.315,0,0,1-1.633.947,3.2,3.2,0,0,0,.029-.407A1.331,1.331,0,0,0,289.933,433.815Z" transform="translate(-281.762 -413.685)"/></g><path class="c" d="M341.381,660.15s-.976,1.743-4.521.2" transform="translate(-147.781 -394.432)"/><path class="c" d="M288.07,660.86s-3.057,3.6-6.91,1.162" transform="translate(-124.45 -394.729)"/><path class="c" d="M277.74,587.58s2.156,1.348,2.232,2.121-1.116-.581-1.116-.581Z" transform="translate(-123.018 -364.035)"/><path class="c" d="M276.27,605.39a4.5,4.5,0,0,0,2.662,1.04c1.616.07,1.482,2.173.424,1.546a26.489,26.489,0,0,1-3.086-2.586Z" transform="translate(-122.402 -371.495)"/><path class="c" d="M275.56,607.71s1.04,5.1,1.883,4.115" transform="translate(-122.105 -372.467)"/><path class="t" d="M89.428,611.814c1.743-3.2-.238-7.125-2.493-9.978s-5-5.811-4.945-9.467c.087-5.23,5.637-8.322,10.071-11.094A48.809,48.809,0,0,0,101.1,574a13.364,13.364,0,0,0,2.778-3.719,15.079,15.079,0,0,0,.831-6.607q-.291-11.2-1.1-22.368" transform="translate(-41.025 -344.654)"/><path class="b" d="M121.982,535.009a8.136,8.136,0,0,0-4.068-6.683l-1.825,3.609.052-4.37a8.136,8.136,0,1,0,5.846,7.444Z" transform="translate(-50.967 -338.76)"/><path class="b" d="M97.595,627.047a8.136,8.136,0,1,1,.4-6.567l-5.1,4.144,5.608-1.3a8.136,8.136,0,0,1-.907,3.719Z" transform="translate(-41.125 -375.596)"/><path class="b" d="M95.462,596.6a8.136,8.136,0,0,1-2.586-16l-.047,3.359,1.848-3.655h0a8.136,8.136,0,0,1,8.525,7.764,8.043,8.043,0,0,1-.349,2.784A8.136,8.136,0,0,1,95.462,596.6Z" transform="translate(-43.02 -360.983)"/><path class="b" d="M129.726,573.956a8.136,8.136,0,1,1,3.6-15.266l-1.441,3.952,2.97-2.848a8.136,8.136,0,0,1,2.633,5.631,8.012,8.012,0,0,1-.2,2.249A8.165,8.165,0,0,1,129.726,573.956Z" transform="translate(-57.485 -351.515)"/><path class="c" d="M120.911,540.4c-1.883.2-3.713.79-5.6.907a6.11,6.11,0,0,1-5.161-1.8,25.813,25.813,0,0,1-1.505-2.656,5.813,5.813,0,0,0-2.057-1.935,8.136,8.136,0,1,0,15.249,5.416Q121.376,540.344,120.911,540.4Z" transform="translate(-50.994 -341.974)"/><path class="c" d="M129.649,577.3a8.136,8.136,0,0,1-7.758-11.623,6.026,6.026,0,0,1,1.639,1.639,26.666,26.666,0,0,0,1.616,2.7,6.681,6.681,0,0,0,5.41,1.895c1.97-.087,3.87-.651,5.811-.831.273,0,.546-.041.825-.046A8.165,8.165,0,0,1,129.649,577.3Z" transform="translate(-57.407 -354.862)"/><path class="c" d="M95.575,600.073a8.136,8.136,0,0,1-7.828-11.483,6.6,6.6,0,0,1,1.743,1.656,27.323,27.323,0,0,0,1.772,2.749,7.527,7.527,0,0,0,5.771,2.022c2.08-.052,3.969-.535,5.974-.692A8.136,8.136,0,0,1,95.575,600.073Z" transform="translate(-43.133 -364.458)"/><path class="c" d="M97.438,630.8a8.146,8.146,0,1,1-14.871-6.654,7.9,7.9,0,0,1,1.79,1.6,35.5,35.5,0,0,0,2.185,2.906,10.159,10.159,0,0,0,6.759,2.377,34.854,34.854,0,0,0,4.138-.227Z" transform="translate(-40.969 -379.353)"/><path class="u" d="M73.62,653.778s6.439-.168,8.357-1.581,9.879-3.028,10.379-.814,9.676,11.042,2.406,11.076S77.88,661.3,75.939,660.136,73.62,653.778,73.62,653.778Z" transform="translate(-37.52 -390.303)"/><path class="v" d="M94.919,664.183c-7.27.064-16.888-1.127-18.823-2.325-1.476-.9-2.063-4.126-2.261-5.608H73.62s.407,5.19,2.325,6.393,11.559,2.371,18.823,2.325c2.1,0,2.824-.761,2.784-1.866C97.278,663.758,96.505,664.171,94.919,664.183Z" transform="translate(-37.52 -392.798)"/></g></svg>